<svg width="2025" height="2025" viewBox="0 0 2025 2025" fill="none" xmlns="http://www.w3.org/2000/svg">
<circle cx="1012.26" cy="1012.26" r="992.26" fill="white" stroke="#F20574" stroke-width="40"/>
<path d="M940.746 1286.43C932.643 1286.43 925.452 1285.08 919.171 1282.38C912.944 1279.62 908.013 1275.49 904.376 1269.98C900.793 1264.41 899 1257.44 899 1249.07C899 1242.01 900.24 1236.06 902.721 1231.21C905.201 1226.37 908.616 1222.42 912.97 1219.39C917.323 1216.36 922.339 1214.08 928.016 1212.53C933.69 1210.93 939.753 1209.86 946.201 1209.31C953.417 1208.65 959.233 1207.96 963.641 1207.24C968.049 1206.47 971.246 1205.4 973.228 1204.02C975.269 1202.59 976.287 1200.58 976.287 1197.99V1197.57C976.287 1193.33 974.829 1190.05 971.908 1187.74C968.987 1185.42 965.045 1184.26 960.088 1184.26C954.741 1184.26 950.442 1185.42 947.191 1187.74C943.939 1190.05 941.873 1193.25 940.993 1197.32L903.714 1196C904.816 1188.29 907.652 1181.4 912.228 1175.34C916.854 1169.22 923.194 1164.43 931.239 1160.96C939.338 1157.43 949.067 1155.66 960.419 1155.66C968.518 1155.66 975.985 1156.63 982.819 1158.56C989.653 1160.43 995.603 1163.19 1000.67 1166.83C1005.74 1170.4 1009.66 1174.82 1012.41 1180.05C1015.22 1185.28 1016.63 1191.26 1016.63 1197.99V1284.28H978.604V1266.59H977.611C975.352 1270.89 972.457 1274.52 968.933 1277.5C965.459 1280.48 961.353 1282.71 956.614 1284.2C951.93 1285.68 946.641 1286.43 940.746 1286.43ZM953.225 1259.98C957.578 1259.98 961.491 1259.1 964.965 1257.33C968.489 1255.57 971.301 1253.14 973.396 1250.06C975.49 1246.92 976.538 1243.28 976.538 1239.15V1227.08C975.378 1227.69 973.974 1228.24 972.319 1228.73C970.722 1229.23 968.958 1229.7 967.031 1230.14C965.103 1230.58 963.117 1230.97 961.081 1231.3C959.04 1231.63 957.083 1231.93 955.21 1232.21C951.406 1232.81 948.158 1233.75 945.456 1235.02C942.812 1236.28 940.771 1237.94 939.338 1239.97C937.96 1241.96 937.272 1244.33 937.272 1247.08C937.272 1251.27 938.76 1254.47 941.735 1256.67C944.768 1258.88 948.598 1259.98 953.225 1259.98ZM1081.76 1115V1284.28H1041.34V1115H1081.76ZM1166.76 1286.68C1153.37 1286.68 1141.88 1283.92 1132.29 1278.41C1122.75 1272.9 1115.43 1265.24 1110.3 1255.43C1105.18 1245.57 1102.61 1234.16 1102.61 1221.21C1102.61 1208.21 1105.18 1196.8 1110.3 1186.99C1115.48 1177.13 1122.84 1169.44 1132.37 1163.93C1141.96 1158.42 1153.39 1155.66 1166.67 1155.66C1178.41 1155.66 1188.64 1157.79 1197.34 1162.03C1206.1 1166.27 1212.94 1172.28 1217.84 1180.05C1222.8 1187.76 1225.42 1196.83 1225.69 1207.24H1187.92C1187.15 1200.74 1184.94 1195.64 1181.31 1191.95C1177.72 1188.26 1173.04 1186.41 1167.25 1186.41C1162.57 1186.41 1158.46 1187.74 1154.94 1190.38C1151.41 1192.97 1148.65 1196.83 1146.67 1201.95C1144.74 1207.02 1143.78 1213.31 1143.78 1220.8C1143.78 1228.29 1144.74 1234.63 1146.67 1239.81C1148.65 1244.94 1151.41 1248.82 1154.94 1251.46C1158.46 1254.05 1162.57 1255.35 1167.25 1255.35C1171 1255.35 1174.31 1254.55 1177.17 1252.95C1180.09 1251.35 1182.49 1249.01 1184.37 1245.93C1186.24 1242.79 1187.42 1238.98 1187.92 1234.52H1225.69C1225.31 1244.99 1222.69 1254.14 1217.84 1261.96C1213.05 1269.79 1206.3 1275.87 1197.59 1280.23C1188.94 1284.53 1178.66 1286.68 1166.76 1286.68ZM1158.82 1283.62H1175.02L1173.7 1291.06C1179.76 1291.94 1184.61 1294.12 1188.25 1297.59C1191.89 1301.11 1193.73 1305.69 1193.79 1311.31C1193.84 1319.9 1189.74 1326.68 1181.47 1331.64C1173.26 1336.66 1161.83 1339.16 1147.17 1339.16L1147 1322.55C1154.55 1322.55 1160.39 1321.7 1164.53 1319.99C1168.66 1318.28 1170.81 1315.69 1170.97 1312.22C1171.14 1309.02 1169.9 1306.46 1167.25 1304.53C1164.61 1302.66 1160.5 1301.36 1154.94 1300.64L1158.82 1283.62ZM1282.17 1286.43C1274.07 1286.43 1266.88 1285.08 1260.6 1282.38C1254.37 1279.62 1249.44 1275.49 1245.8 1269.98C1242.22 1264.41 1240.43 1257.44 1240.43 1249.07C1240.43 1242.01 1241.67 1236.06 1244.15 1231.21C1246.63 1226.37 1250.04 1222.42 1254.4 1219.39C1258.75 1216.36 1263.77 1214.08 1269.44 1212.53C1275.12 1210.93 1281.18 1209.86 1287.63 1209.31C1294.84 1208.65 1300.66 1207.96 1305.07 1207.24C1309.48 1206.47 1312.67 1205.4 1314.65 1204.02C1316.7 1202.59 1317.71 1200.58 1317.71 1197.99V1197.57C1317.71 1193.33 1316.25 1190.05 1313.33 1187.74C1310.41 1185.42 1306.47 1184.26 1301.51 1184.26C1296.17 1184.26 1291.87 1185.42 1288.62 1187.74C1285.37 1190.05 1283.3 1193.25 1282.42 1197.32L1245.14 1196C1246.24 1188.29 1249.08 1181.4 1253.65 1175.34C1258.28 1169.22 1264.62 1164.43 1272.67 1160.96C1280.76 1157.43 1290.49 1155.66 1301.85 1155.66C1309.94 1155.66 1317.41 1156.63 1324.25 1158.56C1331.08 1160.43 1337.03 1163.19 1342.1 1166.83C1347.17 1170.4 1351.08 1174.82 1353.84 1180.05C1356.65 1185.28 1358.05 1191.26 1358.05 1197.99V1284.28H1320.03V1266.59H1319.04C1316.78 1270.89 1313.88 1274.52 1310.36 1277.5C1306.89 1280.48 1302.78 1282.71 1298.04 1284.2C1293.36 1285.68 1288.07 1286.43 1282.17 1286.43ZM1294.65 1259.98C1299 1259.98 1302.92 1259.1 1306.39 1257.33C1309.92 1255.57 1312.73 1253.14 1314.82 1250.06C1316.92 1246.92 1317.96 1243.28 1317.96 1239.15V1227.08C1316.8 1227.69 1315.4 1228.24 1313.75 1228.73C1312.15 1229.23 1310.38 1229.7 1308.46 1230.14C1306.53 1230.58 1304.54 1230.97 1302.51 1231.3C1300.47 1231.63 1298.51 1231.93 1296.64 1232.21C1292.83 1232.81 1289.58 1233.75 1286.88 1235.02C1284.24 1236.28 1282.2 1237.94 1280.76 1239.97C1279.39 1241.96 1278.7 1244.33 1278.7 1247.08C1278.7 1251.27 1280.19 1254.47 1283.16 1256.67C1286.19 1258.88 1290.02 1259.98 1294.65 1259.98ZM1429.14 1286.1C1419.77 1286.1 1411.26 1283.67 1403.6 1278.82C1395.94 1273.98 1389.82 1266.7 1385.25 1257C1380.67 1247.3 1378.39 1235.26 1378.39 1220.88C1378.39 1205.95 1380.76 1193.66 1385.5 1184.02C1390.24 1174.37 1396.43 1167.24 1404.09 1162.61C1411.81 1157.98 1420.1 1155.66 1428.97 1155.66C1435.64 1155.66 1441.35 1156.82 1446.09 1159.14C1450.83 1161.4 1454.74 1164.32 1457.82 1167.9C1460.91 1171.48 1463.25 1175.2 1464.85 1179.06H1465.68V1115H1506.1V1284.28H1466.09V1263.7H1464.85C1463.14 1267.61 1460.72 1271.27 1457.58 1274.69C1454.43 1278.11 1450.49 1280.86 1445.76 1282.96C1441.07 1285.05 1435.53 1286.1 1429.14 1286.1ZM1443.19 1254.61C1448.1 1254.61 1452.28 1253.23 1455.76 1250.47C1459.23 1247.66 1461.9 1243.72 1463.77 1238.65C1465.65 1233.58 1466.58 1227.63 1466.58 1220.8C1466.58 1213.85 1465.65 1207.88 1463.77 1202.86C1461.95 1197.85 1459.28 1193.99 1455.76 1191.29C1452.28 1188.59 1448.1 1187.24 1443.19 1187.24C1438.18 1187.24 1433.93 1188.62 1430.46 1191.37C1426.99 1194.13 1424.35 1198.01 1422.53 1203.03C1420.76 1208.04 1419.88 1213.97 1419.88 1220.8C1419.88 1227.63 1420.79 1233.58 1422.61 1238.65C1424.43 1243.72 1427.05 1247.66 1430.46 1250.47C1433.93 1253.23 1438.18 1254.61 1443.19 1254.61ZM1590.93 1286.68C1577.59 1286.68 1566.13 1283.95 1556.54 1278.49C1547.01 1272.98 1539.65 1265.32 1534.47 1255.51C1529.35 1245.65 1526.78 1234.22 1526.78 1221.21C1526.78 1208.15 1529.35 1196.72 1534.47 1186.91C1539.65 1177.05 1547.01 1169.39 1556.54 1163.93C1566.13 1158.42 1577.59 1155.66 1590.93 1155.66C1604.26 1155.66 1615.7 1158.42 1625.23 1163.93C1634.82 1169.39 1642.18 1177.05 1647.3 1186.91C1652.48 1196.72 1655.07 1208.15 1655.07 1221.21C1655.07 1234.22 1652.48 1245.65 1647.3 1255.51C1642.18 1265.32 1634.82 1272.98 1625.23 1278.49C1615.7 1283.95 1604.26 1286.68 1590.93 1286.68ZM1591.17 1256.18C1596.02 1256.18 1600.13 1254.69 1603.49 1251.71C1606.85 1248.74 1609.41 1244.6 1611.18 1239.31C1613 1234.02 1613.91 1227.91 1613.91 1220.96C1613.91 1213.91 1613 1207.74 1611.18 1202.45C1609.41 1197.16 1606.85 1193.03 1603.49 1190.05C1600.13 1187.08 1596.02 1185.59 1591.17 1185.59C1586.16 1185.59 1581.91 1187.08 1578.44 1190.05C1575.03 1193.03 1572.41 1197.16 1570.59 1202.45C1568.83 1207.74 1567.95 1213.91 1567.95 1220.96C1567.95 1227.91 1568.83 1234.02 1570.59 1239.31C1572.41 1244.6 1575.03 1248.74 1578.44 1251.71C1581.91 1254.69 1586.16 1256.18 1591.17 1256.18ZM1786.62 1196.08L1749.51 1197.08C1749.12 1194.43 1748.08 1192.09 1746.37 1190.05C1744.66 1187.96 1742.43 1186.33 1739.67 1185.17C1736.97 1183.96 1733.83 1183.36 1730.25 1183.36C1725.57 1183.36 1721.57 1184.29 1718.26 1186.17C1715.01 1188.04 1713.42 1190.57 1713.47 1193.77C1713.42 1196.25 1714.4 1198.4 1716.44 1200.22C1718.54 1202.03 1722.26 1203.5 1727.6 1204.6L1752.07 1209.23C1764.74 1211.65 1774.17 1215.67 1780.34 1221.3C1786.57 1226.91 1789.71 1234.36 1789.76 1243.61C1789.71 1252.32 1787.12 1259.89 1782 1266.34C1776.93 1272.79 1769.98 1277.81 1761.16 1281.39C1752.35 1284.91 1742.26 1286.68 1730.91 1286.68C1712.78 1286.68 1698.48 1282.96 1688.01 1275.52C1677.59 1268.02 1671.64 1258 1670.16 1245.43L1710.08 1244.44C1710.96 1249.07 1713.25 1252.59 1716.94 1255.02C1720.63 1257.44 1725.34 1258.66 1731.08 1258.66C1736.26 1258.66 1740.47 1257.69 1743.72 1255.76C1746.97 1253.83 1748.63 1251.27 1748.68 1248.07C1748.63 1245.21 1747.36 1242.92 1744.88 1241.21C1742.4 1239.45 1738.51 1238.07 1733.23 1237.08L1711.07 1232.87C1698.34 1230.55 1688.87 1226.28 1682.64 1220.06C1676.41 1213.77 1673.32 1205.78 1673.38 1196.08C1673.32 1187.6 1675.58 1180.35 1680.16 1174.35C1684.73 1168.28 1691.23 1163.65 1699.66 1160.46C1708.1 1157.26 1718.04 1155.66 1729.51 1155.66C1746.7 1155.66 1760.26 1159.28 1770.17 1166.49C1780.09 1173.66 1785.58 1183.52 1786.62 1196.08Z" fill="black"/>
<path d="M888.266 891.506C880.163 891.506 872.973 890.156 866.692 887.456C860.465 884.7 855.533 880.567 851.896 875.057C848.314 869.492 846.521 862.521 846.521 854.145C846.521 847.092 847.761 841.14 850.241 836.291C852.722 831.442 856.137 827.502 860.49 824.471C864.844 821.441 869.859 819.154 875.537 817.611C881.211 816.013 887.273 814.938 893.722 814.387C900.938 813.726 906.753 813.037 911.161 812.321C915.57 811.549 918.766 810.475 920.749 809.097C922.789 807.664 923.807 805.653 923.807 803.063V802.65C923.807 798.407 922.349 795.128 919.428 792.814C916.508 790.499 912.565 789.342 907.608 789.342C902.262 789.342 897.963 790.499 894.711 792.814C891.46 795.128 889.394 798.324 888.514 802.402L851.234 801.079C852.336 793.365 855.173 786.477 859.748 780.415C864.375 774.299 870.714 769.505 878.759 766.033C886.859 762.506 896.588 760.743 907.939 760.743C916.039 760.743 923.506 761.707 930.34 763.636C937.174 765.51 943.124 768.265 948.194 771.901C953.264 775.483 957.177 779.892 959.93 785.127C962.742 790.362 964.146 796.34 964.146 803.063V889.357H926.124V871.668H925.131C922.873 875.966 919.978 879.603 916.453 882.579C912.98 885.554 908.874 887.786 904.135 889.274C899.45 890.762 894.162 891.506 888.266 891.506ZM900.745 865.056C905.099 865.056 909.012 864.174 912.485 862.41C916.01 860.647 918.821 858.223 920.916 855.137C923.011 851.996 924.058 848.359 924.058 844.226V832.158C922.898 832.764 921.494 833.315 919.839 833.811C918.243 834.307 916.479 834.776 914.551 835.216C912.624 835.657 910.638 836.043 908.601 836.374C906.561 836.704 904.604 837.008 902.731 837.283C898.927 837.889 895.679 838.826 892.976 840.093C890.332 841.361 888.292 843.014 886.859 845.053C885.48 847.036 884.793 849.406 884.793 852.161C884.793 856.349 886.281 859.545 889.256 861.749C892.289 863.954 896.119 865.056 900.745 865.056ZM988.863 762.396H1029.28V894.646C1029.28 905.116 1027.13 913.436 1022.84 919.608C1018.59 925.78 1012.58 930.217 1004.82 932.916C997.046 935.618 987.87 936.967 977.29 936.967C975.857 936.967 974.508 936.938 973.238 936.883C971.973 936.829 970.594 936.774 969.107 936.72V906.053C970.1 906.163 970.98 906.246 971.751 906.301C972.522 906.356 973.293 906.384 974.068 906.384C979.632 906.384 983.487 905.337 985.637 903.243C987.786 901.204 988.863 898.063 988.863 893.82V762.396ZM1009.03 747.6C1003.36 747.6 998.479 745.727 994.399 741.98C990.321 738.178 988.285 733.604 988.285 728.259C988.285 722.969 990.321 718.45 994.399 714.703C998.479 710.901 1003.36 709 1009.03 709C1014.76 709 1019.64 710.901 1023.66 714.703C1027.74 718.45 1029.78 722.969 1029.78 728.259C1029.78 733.604 1027.74 738.178 1023.66 741.98C1019.64 745.727 1014.76 747.6 1009.03 747.6ZM1114.28 891.754C1100.94 891.754 1089.48 889.026 1079.89 883.571C1070.36 878.06 1063 870.401 1057.82 860.592C1052.7 850.728 1050.13 839.294 1050.13 826.29C1050.13 813.23 1052.7 801.796 1057.82 791.987C1063 782.124 1070.36 774.464 1079.89 769.009C1089.48 763.498 1100.94 760.743 1114.28 760.743C1127.61 760.743 1139.05 763.498 1148.58 769.009C1158.17 774.464 1165.53 782.124 1170.65 791.987C1175.83 801.796 1178.42 813.23 1178.42 826.29C1178.42 839.294 1175.83 850.728 1170.65 860.592C1165.53 870.401 1158.17 878.06 1148.58 883.571C1139.05 889.026 1127.61 891.754 1114.28 891.754ZM1114.53 861.253C1119.37 861.253 1123.48 859.765 1126.84 856.79C1130.2 853.814 1132.77 849.681 1134.53 844.392C1136.35 839.101 1137.26 832.985 1137.26 826.042C1137.26 818.988 1136.35 812.816 1134.53 807.527C1132.77 802.237 1130.2 798.104 1126.84 795.128C1123.48 792.152 1119.37 790.665 1114.53 790.665C1109.51 790.665 1105.27 792.152 1101.8 795.128C1098.38 798.104 1095.76 802.237 1093.94 807.527C1092.18 812.816 1091.3 818.988 1091.3 826.042C1091.3 832.985 1092.18 839.101 1093.94 844.392C1095.76 849.681 1098.38 853.814 1101.8 856.79C1105.27 859.765 1109.51 861.253 1114.53 861.253ZM1130.73 747.187L1114.28 728.011L1097.91 747.187H1064.02V746.113L1099.81 709.083H1128.83L1164.54 746.113V747.187H1130.73Z" fill="black"/>
<path d="M280.324 986C265.857 986 252.091 982.033 239.024 974.1C225.957 965.7 216.157 953.1 209.624 936.3C207.291 930.233 205.657 923.933 204.724 917.4C203.791 910.4 203.324 903.633 203.324 897.1C203.324 890.567 204.491 887.3 206.824 887.3C209.624 887.3 211.024 889.167 211.024 892.9C211.024 914.833 216.391 931.4 227.124 942.6C238.324 953.8 252.091 959.4 268.424 959.4C284.757 959.4 300.391 954.733 315.324 945.4C330.724 936.067 344.957 924.167 358.024 909.7C379.491 886.367 397.691 862.8 412.624 839C427.557 814.733 441.091 790 453.224 764.8C465.824 739.133 478.424 712.533 491.024 685C498.957 668.2 508.757 653.5 520.424 640.9C532.557 628.3 547.024 619.667 563.824 615L564.524 614.3H526.024C509.691 614.3 492.424 615 474.224 616.4C456.024 617.8 439.457 620.833 424.524 625.5C410.057 630.167 399.557 637.167 393.024 646.5C388.824 652.567 386.724 659.567 386.724 667.5C386.724 675.433 388.824 683.133 393.024 690.6C397.224 698.067 402.591 703.433 409.124 706.7C410.057 707.633 410.524 708.333 410.524 708.8C410.524 709.733 409.357 710.9 407.024 712.3C405.157 713.233 403.057 713.467 400.724 713C396.991 710.667 392.324 706.933 386.724 701.8C381.124 696.2 375.991 690.367 371.324 684.3C367.124 678.233 364.324 673.1 362.924 668.9C361.057 663.3 360.124 657.7 360.124 652.1C360.124 640.9 364.091 631.8 372.024 624.8C380.424 617.8 391.157 612.433 404.224 608.7C417.291 604.967 431.291 602.4 446.224 601C461.624 599.133 476.324 598.2 490.324 598.2C504.791 597.733 517.157 597.5 527.424 597.5H603.024C603.957 597.5 604.424 597.733 604.424 598.2C604.424 599.6 602.791 601.7 599.524 604.5C596.724 606.833 594.857 608 593.924 608C582.257 610.333 573.624 616.633 568.024 626.9C562.424 636.7 559.857 652.567 560.324 674.5C560.324 674.5 560.324 679.633 560.324 689.9C560.791 700.167 561.257 713.467 561.724 729.8C562.191 746.133 562.657 763.633 563.124 782.3C563.591 800.967 564.057 818.933 564.524 836.2C564.991 853.467 565.457 867.933 565.924 879.6V883.8L808.824 627.6C824.224 611.267 839.391 597.5 854.324 586.3C869.724 574.633 885.591 569.5 901.924 570.9C902.391 570.9 902.624 571.133 902.624 571.6C903.091 571.6 903.324 571.6 903.324 571.6C903.324 573 902.391 574.633 900.524 576.5C898.657 578.367 896.557 579.533 894.224 580C882.091 579.533 871.124 584.2 861.324 594C851.524 603.8 842.424 615.467 834.024 629C829.824 636 823.524 647.2 815.124 662.6C806.724 677.533 797.157 695.267 786.424 715.8C776.157 736.333 765.657 758.033 754.924 780.9C744.191 803.767 734.157 826.167 724.824 848.1C715.957 870.033 708.724 890.1 703.124 908.3C697.524 926.033 694.724 940.5 694.724 951.7C694.724 964.767 699.157 971.3 708.024 971.3C711.757 971.3 715.724 970.367 719.924 968.5C725.991 966.167 732.757 962.667 740.224 958C747.691 953.333 754.457 947.967 760.524 941.9C772.657 930.233 783.391 918.333 792.724 906.2C802.057 893.6 807.657 886.367 809.524 884.5C810.924 882.633 812.091 881.7 813.024 881.7C814.891 881.7 815.824 883.1 815.824 885.9C815.824 888.7 814.891 891.267 813.024 893.6C809.291 898.267 802.991 906.433 794.124 918.1C785.257 929.3 774.757 940.733 762.624 952.4C750.957 964.067 738.357 972.933 724.824 979C720.624 980.867 716.191 982.267 711.524 983.2C706.857 984.6 702.191 985.3 697.524 985.3C687.257 985.3 677.924 982.267 669.524 976.2C661.591 969.667 657.624 958.933 657.624 944C657.624 929.533 660.891 913.2 667.424 895C674.424 876.333 682.124 858.367 690.524 841.1C699.391 823.367 706.624 808.433 712.224 796.3C718.291 783.7 725.991 767.6 735.324 748C744.657 728.4 755.391 708.567 767.524 688.5L565.924 901.3C565.457 905.033 563.824 908.767 561.024 912.5C558.224 915.767 553.791 918.567 547.724 920.9C544.457 922.3 540.024 926.033 534.424 932.1C528.824 938.167 525.091 942.367 523.224 944.7C523.224 945.167 522.524 945.4 521.124 945.4C519.724 945.4 518.324 944.933 516.924 944C515.524 943.067 515.057 942.367 515.524 941.9C527.657 926.5 533.957 905.267 534.424 878.2L535.124 861.4C536.057 841.8 536.757 821.267 537.224 799.8C537.691 777.867 537.924 757.567 537.924 738.9C538.391 719.767 538.624 704.367 538.624 692.7C538.624 680.567 538.624 674.5 538.624 674.5C538.624 663.3 540.257 653.5 543.524 645.1C546.791 636.7 550.757 629.467 555.424 623.4C547.491 629.467 539.791 636.7 532.324 645.1C524.857 653.5 518.557 662.833 513.424 673.1C506.424 687.567 498.491 706.233 489.624 729.1C480.757 751.967 470.491 776.233 458.824 801.9C447.624 827.567 435.024 852.767 421.024 877.5C407.491 901.767 392.324 922.767 375.524 940.5C363.857 953.1 348.924 963.833 330.724 972.7C312.991 981.567 296.191 986 280.324 986Z" fill="#F20574"/>
<path fill-rule="evenodd" clip-rule="evenodd" d="M583.671 1396.3C584.604 1397.23 586.004 1397.7 587.871 1397.7C589.271 1397.7 590.204 1397.47 590.671 1397C597.204 1390.93 603.504 1386.5 609.571 1383.7C616.104 1380.9 623.338 1379.5 631.271 1379.5C634.538 1379.5 637.571 1379.73 640.371 1380.2C643.171 1380.67 645.504 1380.9 647.371 1380.9C652.038 1380.9 655.538 1377.4 657.871 1370.4C660.204 1362.93 663.004 1356.4 666.271 1350.8C681.204 1321.4 695.671 1293.17 709.671 1266.1C724.138 1238.57 737.671 1213.13 750.271 1189.8C756.338 1178.6 763.338 1166 771.271 1152C779.204 1138 786.671 1124.7 793.671 1112.1C801.138 1099.5 807.204 1089.23 811.871 1081.3L819.571 1068.7C841.038 1031.37 862.504 1012.7 883.971 1012.7C885.838 1012.7 887.238 1012.93 888.171 1013.4H893.071C896.338 1013.4 897.971 1011.53 897.971 1007.8C897.971 1005.93 897.271 1004.07 895.871 1002.2C894.471 1000.33 892.371 999.4 889.571 999.4H886.771C879.304 1000.8 869.971 1001.73 858.771 1002.2H828.671H800.671C791.804 1002.2 780.604 1002.43 767.071 1002.9C753.538 1003.37 740.238 1005 727.171 1007.8C714.571 1010.6 703.838 1015.5 694.971 1022.5C686.104 1029.5 681.671 1039.3 681.671 1051.9C681.671 1056.57 682.371 1061.7 683.771 1067.3C685.171 1073.37 688.904 1081.07 694.971 1090.4C701.038 1099.27 706.171 1104.87 710.371 1107.2C711.771 1107.67 713.171 1107.43 714.571 1106.5C716.438 1105.57 717.371 1104.63 717.371 1103.7C717.371 1103.23 717.138 1102.77 716.671 1102.3C710.138 1097.17 706.871 1088.53 706.871 1076.4C706.871 1072.67 707.104 1068.93 707.571 1065.2C708.504 1061 709.904 1057.27 711.771 1054C721.104 1036.73 739.071 1025.77 765.671 1021.1C792.271 1016.43 822.604 1013.87 856.671 1013.4C845.004 1016.67 831.471 1024.13 816.071 1035.8C801.138 1047 787.371 1063.57 774.771 1085.5L765.671 1102.3C759.604 1113.03 751.438 1127.27 741.171 1145C731.371 1162.73 720.404 1182.1 708.271 1203.1C696.604 1224.1 684.938 1244.87 673.271 1265.4C661.604 1285.93 651.104 1304.13 641.771 1320L631.971 1336.8C624.504 1349.87 617.038 1360.6 609.571 1369C602.571 1377.4 593.704 1385.8 582.971 1394.2C582.038 1394.67 582.271 1395.37 583.671 1396.3ZM857.371 1379.5C869.504 1386.97 881.404 1390.7 893.071 1390.7C912.204 1390.7 931.104 1382.07 949.771 1364.8C950.088 1364.51 950.405 1364.23 950.722 1363.94L927.021 1359L926.983 1358.99C921.484 1360.53 915.78 1361.3 909.871 1361.3C900.538 1361.3 890.504 1358.5 879.771 1352.9C869.504 1346.83 859.004 1337.27 848.271 1324.2C833.804 1306.47 821.204 1288.97 810.471 1271.7C799.738 1253.97 791.104 1238.1 784.571 1224.1C778.038 1210.1 773.371 1199.6 770.571 1192.6C784.104 1182.8 799.271 1172.07 816.071 1160.4C833.338 1148.27 851.071 1136.37 869.271 1124.7C887.471 1113.03 904.738 1102.77 921.071 1093.9C939.271 1083.63 958.638 1073.83 979.171 1064.5C999.704 1055.17 1019.3 1046.53 1037.97 1038.6C1047.3 1034.87 1058.04 1030.9 1070.17 1026.7C1082.77 1022.5 1094.2 1020.4 1104.47 1020.4C1112.4 1020.4 1118.24 1021.8 1121.97 1024.6C1125.7 1027.4 1128.5 1030.2 1130.37 1033C1132.24 1035.8 1134.34 1037.2 1136.67 1037.2C1138.54 1037.2 1139.47 1036.27 1139.47 1034.4C1140.4 1028.8 1137.84 1023.9 1131.77 1019.7C1125.7 1015.03 1120.34 1012 1115.67 1010.6C1109.6 1008.27 1103.3 1006.63 1096.77 1005.7C1090.24 1004.3 1083.7 1003.6 1077.17 1003.6C1062.7 1003.6 1047.77 1006.87 1032.37 1013.4C1010.44 1022.73 988.738 1034.4 967.271 1048.4C945.804 1061.93 925.738 1074.3 907.071 1085.5C879.538 1102.77 851.771 1120.97 823.771 1140.1C796.238 1159.23 769.404 1180.93 743.271 1205.2C746.538 1211.27 751.204 1221.3 757.271 1235.3C763.804 1249.3 772.204 1265.87 782.471 1285C792.738 1303.67 805.338 1323.03 820.271 1343.1C832.871 1359.43 845.238 1371.57 857.371 1379.5Z" fill="#F20574"/>
<path fill-rule="evenodd" clip-rule="evenodd" d="M688.321 1238.94L716.657 1188.91C729.381 1182 744.003 1176.39 752.068 1175.87C756.98 1175.55 757.746 1175.72 759.819 1177.4C761.044 1178.4 762.805 1181.13 763.711 1183.38C769.053 1196.7 821.933 1290.42 832.16 1304.59C841.269 1317.33 856.22 1331.03 866.383 1336.12C869.233 1337.53 874.946 1339.83 879.142 1341.28C883.239 1342.79 890.567 1345.88 895.411 1348.31C907.761 1354.42 925.143 1359.24 953.197 1364.18C962.083 1365.7 973.233 1367.66 981.721 1369.15C984.941 1369.72 987.779 1370.22 989.964 1370.6C1007.1 1373.63 1013.5 1375.5 1018.6 1379.06C1023.14 1382.22 1026.38 1387.51 1024.71 1388.74C1022.65 1390.25 1001.7 1393.68 980.103 1396.05C972.389 1396.9 955.22 1399.01 942.004 1400.69C911.425 1404.55 901.024 1405.19 884.7 1404.26C856.179 1402.66 836.169 1395.25 822.097 1380.97C810.841 1369.52 803.139 1358.24 786.007 1327.73C775.875 1309.76 771.338 1302.64 763.499 1292.99C754.915 1282.35 748.88 1277.51 744.076 1277.4C741.287 1277.33 736.854 1281.68 734.813 1286.48C731.238 1294.88 728.106 1316.54 724.798 1356.97C721.777 1393.53 721.414 1396.58 719.673 1397.05C718.8 1397.26 716.303 1397.2 714.003 1396.84C712.638 1396.64 711.655 1396.71 711.019 1396.28C709.331 1395.12 710.066 1390.43 712.509 1367.83C713.882 1355.14 715.476 1337.3 716.089 1328.09C717.238 1308.83 716.35 1301.95 710.951 1287C707.893 1278.44 705.519 1273.39 691.954 1246.32C690.531 1243.5 689.329 1241.06 688.321 1238.94Z" fill="#F20574"/>
</svg>
